<?xml version="1.0" encoding="utf-8" standalone="no"?>
<!DOCTYPE svg PUBLIC "-//W3C//DTD SVG 1.1//EN"
  "http://www.w3.org/Graphics/SVG/1.1/DTD/svg11.dtd">
<svg xmlns:xlink="http://www.w3.org/1999/xlink" width="518.4pt" height="309.6pt" viewBox="0 0 518.4 309.6" xmlns="http://www.w3.org/2000/svg" version="1.1">
 <metadata>
  <rdf:RDF xmlns:dc="http://purl.org/dc/elements/1.1/" xmlns:cc="http://creativecommons.org/ns#" xmlns:rdf="http://www.w3.org/1999/02/22-rdf-syntax-ns#">
   <cc:Work>
    <dc:type rdf:resource="http://purl.org/dc/dcmitype/StillImage"/>
    <dc:date>2026-08-03T07:01:04.493934</dc:date>
    <dc:format>image/svg+xml</dc:format>
    <dc:creator>
     <cc:Agent>
      <dc:title>Matplotlib v3.11.1, https://matplotlib.org/</dc:title>
     </cc:Agent>
    </dc:creator>
   </cc:Work>
  </rdf:RDF>
 </metadata>
 <defs>
  <style type="text/css">*{stroke-linejoin: round; stroke-linecap: butt}</style>
 </defs>
 <g id="figure_1">
  <g id="patch_1">
   <path d="M 0 309.6 
L 518.4 309.6 
L 518.4 0 
L 0 0 
z
" style="fill: #ffffff"/>
  </g>
  <g id="axes_1">
   <g id="patch_2">
    <path d="M 44.064 282.24 
L 510.624 282.24 
L 510.624 15.84 
L 44.064 15.84 
z
" style="fill: #ffffff"/>
   </g>
   <g id="matplotlib.axis_1">
    <g id="xtick_1">
     <g id="line2d_1"/>
     <g id="text_1">
      <!-- 0 -->
      <g style="fill: #6e6e6e" transform="translate(55.878602 293.4752) scale(0.076 -0.076)">
       <defs>
        <path id="HelveticaNeue-17" d="M 845 2234 
Q 845 2400 848 2601 
Q 851 2803 880 3004 
Q 909 3206 963 3398 
Q 1018 3590 1123 3734 
Q 1229 3878 1389 3968 
Q 1549 4058 1779 4058 
Q 2010 4058 2170 3968 
Q 2330 3878 2435 3734 
Q 2541 3590 2595 3398 
Q 2650 3206 2678 3004 
Q 2707 2803 2710 2601 
Q 2714 2400 2714 2234 
Q 2714 1978 2698 1661 
Q 2682 1344 2595 1065 
Q 2509 787 2317 595 
Q 2125 403 1779 403 
Q 1434 403 1242 595 
Q 1050 787 963 1065 
Q 877 1344 861 1661 
Q 845 1978 845 2234 
z
M 269 2227 
Q 269 1978 281 1709 
Q 294 1440 345 1184 
Q 397 928 493 701 
Q 589 474 755 301 
Q 922 128 1174 29 
Q 1427 -70 1779 -70 
Q 2138 -70 2387 29 
Q 2637 128 2803 301 
Q 2970 474 3066 701 
Q 3162 928 3213 1184 
Q 3264 1440 3277 1709 
Q 3290 1978 3290 2227 
Q 3290 2477 3277 2745 
Q 3264 3014 3213 3270 
Q 3162 3526 3066 3756 
Q 2970 3987 2803 4160 
Q 2637 4333 2384 4435 
Q 2131 4538 1779 4538 
Q 1427 4538 1174 4435 
Q 922 4333 755 4160 
Q 589 3987 493 3756 
Q 397 3526 345 3270 
Q 294 3014 281 2745 
Q 269 2477 269 2227 
z
" transform="scale(0.015625)"/>
       </defs>
       <use xlink:href="#HelveticaNeue-17"/>
      </g>
     </g>
    </g>
    <g id="xtick_2">
     <g id="line2d_2"/>
     <g id="text_2">
      <!-- 100 -->
      <g style="fill: #6e6e6e" transform="translate(138.698253 293.4752) scale(0.076 -0.076)">
       <defs>
        <path id="HelveticaNeue-18" d="M 2278 0 
L 2278 4538 
L 1862 4538 
Q 1818 4282 1696 4115 
Q 1574 3949 1398 3853 
Q 1222 3757 1004 3721 
Q 787 3686 557 3686 
L 557 3251 
L 1734 3251 
L 1734 0 
L 2278 0 
z
" transform="scale(0.015625)"/>
       </defs>
       <use xlink:href="#HelveticaNeue-18"/>
       <use xlink:href="#HelveticaNeue-17" transform="translate(55.59375 0)"/>
       <use xlink:href="#HelveticaNeue-17" transform="translate(111.1875 0)"/>
      </g>
     </g>
    </g>
    <g id="xtick_3">
     <g id="line2d_3"/>
     <g id="text_3">
      <!-- 200 -->
      <g style="fill: #6e6e6e" transform="translate(225.743029 293.4752) scale(0.076 -0.076)">
       <defs>
        <path id="HelveticaNeue-19" d="M 282 2931 
L 826 2931 
Q 819 3136 867 3337 
Q 915 3539 1024 3699 
Q 1133 3859 1302 3958 
Q 1472 4058 1709 4058 
Q 1888 4058 2048 4000 
Q 2208 3942 2326 3833 
Q 2445 3725 2515 3574 
Q 2586 3424 2586 3238 
Q 2586 3002 2512 2822 
Q 2438 2643 2294 2489 
Q 2150 2336 1932 2185 
Q 1715 2035 1427 1856 
Q 1190 1715 972 1555 
Q 755 1395 582 1184 
Q 410 973 298 688 
Q 186 403 154 0 
L 3117 0 
L 3117 480 
L 787 480 
Q 826 691 950 854 
Q 1075 1018 1251 1158 
Q 1427 1299 1638 1424 
Q 1850 1549 2061 1677 
Q 2272 1811 2470 1958 
Q 2669 2106 2822 2288 
Q 2976 2470 3069 2700 
Q 3162 2931 3162 3232 
Q 3162 3552 3050 3795 
Q 2938 4038 2746 4201 
Q 2554 4365 2294 4451 
Q 2035 4538 1741 4538 
Q 1382 4538 1100 4416 
Q 819 4294 630 4080 
Q 442 3866 352 3571 
Q 262 3277 282 2931 
z
" transform="scale(0.015625)"/>
       </defs>
       <use xlink:href="#HelveticaNeue-19"/>
       <use xlink:href="#HelveticaNeue-17" transform="translate(55.59375 0)"/>
       <use xlink:href="#HelveticaNeue-17" transform="translate(111.1875 0)"/>
      </g>
     </g>
    </g>
    <g id="xtick_4">
     <g id="line2d_4"/>
     <g id="text_4">
      <!-- 300 -->
      <g style="fill: #6e6e6e" transform="translate(312.787805 293.4752) scale(0.076 -0.076)">
       <defs>
        <path id="HelveticaNeue-1a" d="M 1395 2592 
L 1395 2131 
Q 1549 2150 1722 2150 
Q 1926 2150 2102 2096 
Q 2278 2042 2406 1930 
Q 2534 1818 2611 1654 
Q 2688 1491 2688 1280 
Q 2688 1075 2608 912 
Q 2528 749 2393 637 
Q 2259 525 2080 464 
Q 1901 403 1702 403 
Q 1235 403 992 681 
Q 749 960 736 1402 
L 192 1402 
Q 186 1050 291 774 
Q 397 499 595 310 
Q 794 122 1075 26 
Q 1357 -70 1702 -70 
Q 2022 -70 2307 16 
Q 2592 102 2803 275 
Q 3014 448 3139 707 
Q 3264 966 3264 1306 
Q 3264 1715 3062 2016 
Q 2861 2317 2445 2406 
L 2445 2419 
Q 2714 2541 2893 2777 
Q 3072 3014 3072 3322 
Q 3072 3635 2966 3865 
Q 2861 4096 2675 4243 
Q 2490 4390 2237 4464 
Q 1984 4538 1690 4538 
Q 1350 4538 1091 4429 
Q 832 4320 659 4128 
Q 486 3936 393 3667 
Q 301 3398 288 3072 
L 832 3072 
Q 832 3270 883 3449 
Q 934 3629 1040 3763 
Q 1146 3898 1309 3978 
Q 1472 4058 1690 4058 
Q 2035 4058 2265 3875 
Q 2496 3693 2496 3328 
Q 2496 3149 2425 3008 
Q 2355 2867 2236 2774 
Q 2118 2682 1961 2634 
Q 1805 2586 1632 2586 
L 1517 2586 
Q 1485 2586 1453 2586 
Q 1427 2586 1395 2592 
z
" transform="scale(0.015625)"/>
       </defs>
       <use xlink:href="#HelveticaNeue-1a"/>
       <use xlink:href="#HelveticaNeue-17" transform="translate(55.59375 0)"/>
       <use xlink:href="#HelveticaNeue-17" transform="translate(111.1875 0)"/>
      </g>
     </g>
    </g>
    <g id="xtick_5">
     <g id="line2d_5"/>
     <g id="text_5">
      <!-- 400 -->
      <g style="fill: #6e6e6e" transform="translate(399.832581 293.4752) scale(0.076 -0.076)">
       <defs>
        <path id="HelveticaNeue-1b" d="M 2170 1542 
L 646 1542 
L 2157 3763 
L 2170 3763 
L 2170 1542 
z
M 2682 1542 
L 2682 4538 
L 2246 4538 
L 179 1587 
L 179 1062 
L 2170 1062 
L 2170 0 
L 2682 0 
L 2682 1062 
L 3296 1062 
L 3296 1542 
L 2682 1542 
z
" transform="scale(0.015625)"/>
       </defs>
       <use xlink:href="#HelveticaNeue-1b"/>
       <use xlink:href="#HelveticaNeue-17" transform="translate(55.59375 0)"/>
       <use xlink:href="#HelveticaNeue-17" transform="translate(111.1875 0)"/>
      </g>
     </g>
    </g>
    <g id="xtick_6">
     <g id="line2d_6"/>
     <g id="text_6">
      <!-- 500 -->
      <g style="fill: #6e6e6e" transform="translate(486.877357 293.4752) scale(0.076 -0.076)">
       <defs>
        <path id="HelveticaNeue-1c" d="M 3008 3981 
L 3008 4461 
L 768 4461 
L 346 2106 
L 813 2080 
Q 973 2272 1181 2390 
Q 1389 2509 1658 2509 
Q 1888 2509 2077 2432 
Q 2266 2355 2400 2217 
Q 2534 2080 2608 1891 
Q 2682 1702 2682 1478 
Q 2682 1210 2605 1008 
Q 2528 806 2397 672 
Q 2266 538 2090 470 
Q 1914 403 1722 403 
Q 1517 403 1347 464 
Q 1178 525 1053 637 
Q 928 749 854 899 
Q 781 1050 768 1222 
L 224 1222 
Q 230 915 345 672 
Q 461 429 659 265 
Q 858 102 1117 16 
Q 1376 -70 1670 -70 
Q 2067 -70 2364 54 
Q 2662 179 2860 390 
Q 3059 602 3158 874 
Q 3258 1146 3258 1434 
Q 3258 1824 3142 2115 
Q 3027 2406 2828 2601 
Q 2630 2797 2361 2893 
Q 2093 2989 1792 2989 
Q 1562 2989 1328 2909 
Q 1094 2829 947 2662 
L 934 2675 
L 1178 3981 
L 3008 3981 
z
" transform="scale(0.015625)"/>
       </defs>
       <use xlink:href="#HelveticaNeue-1c"/>
       <use xlink:href="#HelveticaNeue-17" transform="translate(55.59375 0)"/>
       <use xlink:href="#HelveticaNeue-17" transform="translate(111.1875 0)"/>
      </g>
     </g>
    </g>
    <g id="text_7">
     <!-- World age at observation (days since documented creation) -->
     <g style="fill: #6e6e6e" transform="translate(171.25525 306.71) scale(0.08 -0.08)">
      <defs>
       <path id="HelveticaNeue-3e" d="M 4627 0 
L 5850 4570 
L 5242 4570 
L 4314 768 
L 4301 768 
L 3290 4570 
L 2630 4570 
L 1606 768 
L 1594 768 
L 698 4570 
L 77 4570 
L 1248 0 
L 1882 0 
L 2938 3840 
L 2950 3840 
L 3994 0 
L 4627 0 
z
" transform="scale(0.015625)"/>
       <path id="HelveticaNeue-56" d="M 806 1651 
Q 806 1952 886 2185 
Q 966 2419 1107 2579 
Q 1248 2739 1437 2822 
Q 1626 2906 1837 2906 
Q 2048 2906 2237 2822 
Q 2426 2739 2566 2579 
Q 2707 2419 2787 2185 
Q 2867 1952 2867 1651 
Q 2867 1350 2787 1116 
Q 2707 883 2566 726 
Q 2426 570 2237 486 
Q 2048 403 1837 403 
Q 1626 403 1437 486 
Q 1248 570 1107 726 
Q 966 883 886 1116 
Q 806 1350 806 1651 
z
M 230 1651 
Q 230 1286 332 972 
Q 435 659 640 425 
Q 845 192 1145 61 
Q 1446 -70 1837 -70 
Q 2234 -70 2531 61 
Q 2829 192 3033 425 
Q 3238 659 3340 972 
Q 3443 1286 3443 1651 
Q 3443 2016 3340 2333 
Q 3238 2650 3033 2883 
Q 2829 3117 2531 3251 
Q 2234 3386 1837 3386 
Q 1446 3386 1145 3251 
Q 845 3117 640 2883 
Q 435 2650 332 2333 
Q 230 2016 230 1651 
z
" transform="scale(0.015625)"/>
       <path id="HelveticaNeue-59" d="M 390 3309 
L 390 0 
L 934 0 
L 934 1472 
Q 934 1792 998 2038 
Q 1062 2285 1203 2457 
Q 1344 2630 1574 2720 
Q 1805 2810 2131 2810 
L 2131 3386 
Q 1690 3398 1402 3206 
Q 1114 3014 915 2611 
L 902 2611 
L 902 3309 
L 390 3309 
z
" transform="scale(0.015625)"/>
       <path id="HelveticaNeue-53" d="M 442 4570 
L 442 0 
L 986 0 
L 986 4570 
L 442 4570 
z
" transform="scale(0.015625)"/>
       <path id="HelveticaNeue-4b" d="M 806 1626 
Q 806 1869 857 2099 
Q 909 2330 1024 2509 
Q 1139 2688 1331 2797 
Q 1523 2906 1798 2906 
Q 2080 2906 2278 2800 
Q 2477 2694 2601 2521 
Q 2726 2349 2784 2121 
Q 2842 1894 2842 1651 
Q 2842 1421 2787 1197 
Q 2733 973 2611 797 
Q 2490 621 2298 512 
Q 2106 403 1830 403 
Q 1568 403 1373 505 
Q 1178 608 1053 781 
Q 928 954 867 1174 
Q 806 1395 806 1626 
z
M 3366 0 
L 3366 4570 
L 2822 4570 
L 2822 2867 
L 2810 2867 
Q 2720 3014 2589 3113 
Q 2458 3213 2310 3273 
Q 2163 3334 2016 3360 
Q 1869 3386 1741 3386 
Q 1363 3386 1078 3248 
Q 794 3110 605 2876 
Q 416 2643 323 2329 
Q 230 2016 230 1664 
Q 230 1312 326 998 
Q 422 685 611 448 
Q 800 211 1085 70 
Q 1370 -70 1754 -70 
Q 2099 -70 2387 51 
Q 2675 173 2810 448 
L 2822 448 
L 2822 0 
L 3366 0 
z
" transform="scale(0.015625)"/>
       <path id="HelveticaNeue-3" transform="scale(0.015625)"/>
       <path id="HelveticaNeue-48" d="M 3341 13 
Q 3200 -70 2950 -70 
Q 2739 -70 2614 48 
Q 2490 166 2490 435 
Q 2266 166 1968 48 
Q 1670 -70 1325 -70 
Q 1101 -70 899 -19 
Q 698 32 550 141 
Q 403 250 316 426 
Q 230 602 230 851 
Q 230 1133 326 1312 
Q 422 1491 579 1603 
Q 736 1715 937 1772 
Q 1139 1830 1350 1869 
Q 1574 1914 1776 1936 
Q 1978 1958 2131 2000 
Q 2285 2042 2374 2122 
Q 2464 2202 2464 2355 
Q 2464 2534 2397 2643 
Q 2330 2752 2224 2809 
Q 2118 2867 1987 2886 
Q 1856 2906 1728 2906 
Q 1382 2906 1152 2774 
Q 922 2643 902 2278 
L 358 2278 
Q 371 2586 486 2797 
Q 602 3008 794 3139 
Q 986 3270 1232 3328 
Q 1478 3386 1760 3386 
Q 1984 3386 2205 3354 
Q 2426 3322 2605 3222 
Q 2784 3123 2893 2944 
Q 3002 2765 3002 2477 
L 3002 774 
Q 3002 582 3024 492 
Q 3046 403 3174 403 
Q 3245 403 3341 435 
L 3341 13 
z
M 2458 1709 
Q 2355 1632 2188 1597 
Q 2022 1562 1840 1539 
Q 1658 1517 1472 1488 
Q 1286 1459 1139 1395 
Q 992 1331 899 1212 
Q 806 1094 806 890 
Q 806 755 860 662 
Q 915 570 1001 512 
Q 1088 454 1203 428 
Q 1318 403 1446 403 
Q 1715 403 1907 476 
Q 2099 550 2220 662 
Q 2342 774 2400 905 
Q 2458 1037 2458 1152 
L 2458 1709 
z
" transform="scale(0.015625)"/>
       <path id="HelveticaNeue-4e" d="M 3264 282 
L 3264 3309 
L 2752 3309 
L 2752 2835 
L 2746 2835 
Q 2598 3110 2336 3248 
Q 2074 3386 1760 3386 
Q 1331 3386 1036 3222 
Q 742 3059 563 2806 
Q 384 2554 307 2243 
Q 230 1933 230 1638 
Q 230 1299 323 995 
Q 416 691 601 464 
Q 787 237 1062 102 
Q 1338 -32 1709 -32 
Q 2029 -32 2313 112 
Q 2598 256 2739 563 
L 2752 563 
L 2752 346 
Q 2752 70 2697 -160 
Q 2643 -390 2521 -553 
Q 2400 -717 2214 -809 
Q 2029 -902 1760 -902 
Q 1626 -902 1478 -873 
Q 1331 -845 1206 -781 
Q 1082 -717 995 -614 
Q 909 -512 902 -365 
L 358 -365 
Q 371 -634 499 -819 
Q 627 -1005 822 -1120 
Q 1018 -1235 1258 -1286 
Q 1498 -1338 1728 -1338 
Q 2522 -1338 2893 -934 
Q 3264 -531 3264 282 
z
M 1741 442 
Q 1472 442 1293 554 
Q 1114 666 1005 848 
Q 896 1030 851 1254 
Q 806 1478 806 1702 
Q 806 1939 860 2156 
Q 915 2374 1033 2540 
Q 1152 2707 1337 2806 
Q 1523 2906 1786 2906 
Q 2042 2906 2221 2803 
Q 2400 2701 2512 2531 
Q 2624 2362 2675 2150 
Q 2726 1939 2726 1722 
Q 2726 1491 2672 1260 
Q 2618 1030 2502 848 
Q 2387 666 2198 554 
Q 2010 442 1741 442 
z
" transform="scale(0.015625)"/>
       <path id="HelveticaNeue-4c" d="M 2707 1971 
L 806 1971 
Q 819 2163 889 2332 
Q 960 2502 1081 2630 
Q 1203 2758 1372 2832 
Q 1542 2906 1754 2906 
Q 1958 2906 2128 2832 
Q 2298 2758 2422 2633 
Q 2547 2509 2620 2336 
Q 2694 2163 2707 1971 
z
M 3232 1050 
L 2694 1050 
Q 2624 723 2403 563 
Q 2182 403 1837 403 
Q 1568 403 1369 492 
Q 1171 582 1043 732 
Q 915 883 857 1078 
Q 800 1274 806 1491 
L 3283 1491 
Q 3296 1792 3229 2125 
Q 3162 2458 2986 2739 
Q 2810 3021 2518 3203 
Q 2227 3386 1786 3386 
Q 1446 3386 1161 3258 
Q 877 3130 669 2899 
Q 461 2669 345 2355 
Q 230 2042 230 1664 
Q 243 1286 342 966 
Q 442 646 640 416 
Q 838 186 1129 58 
Q 1421 -70 1818 -70 
Q 2381 -70 2752 211 
Q 3123 493 3232 1050 
z
" transform="scale(0.015625)"/>
       <path id="HelveticaNeue-5b" d="M 1165 3309 
L 1165 4301 
L 621 4301 
L 621 3309 
L 58 3309 
L 58 2829 
L 621 2829 
L 621 723 
Q 621 493 665 352 
Q 710 211 803 134 
Q 896 58 1046 29 
Q 1197 0 1408 0 
L 1824 0 
L 1824 480 
L 1574 480 
Q 1446 480 1366 489 
Q 1286 499 1241 531 
Q 1197 563 1181 620 
Q 1165 678 1165 774 
L 1165 2829 
L 1824 2829 
L 1824 3309 
L 1165 3309 
z
" transform="scale(0.015625)"/>
       <path id="HelveticaNeue-49" d="M 429 4570 
L 429 0 
L 973 0 
L 973 442 
L 986 442 
Q 1075 294 1206 195 
Q 1338 96 1485 38 
Q 1632 -19 1782 -44 
Q 1933 -70 2054 -70 
Q 2432 -70 2717 64 
Q 3002 198 3190 432 
Q 3379 666 3472 979 
Q 3565 1293 3565 1645 
Q 3565 1997 3469 2310 
Q 3373 2624 3184 2864 
Q 2995 3104 2710 3245 
Q 2426 3386 2042 3386 
Q 1696 3386 1408 3261 
Q 1120 3136 986 2861 
L 973 2861 
L 973 4570 
L 429 4570 
z
M 2989 1683 
Q 2989 1440 2937 1209 
Q 2886 979 2771 800 
Q 2656 621 2467 512 
Q 2278 403 1997 403 
Q 1715 403 1516 508 
Q 1318 614 1193 787 
Q 1069 960 1011 1187 
Q 954 1414 954 1658 
Q 954 1888 1008 2112 
Q 1062 2336 1184 2512 
Q 1306 2688 1498 2797 
Q 1690 2906 1965 2906 
Q 2227 2906 2422 2803 
Q 2618 2701 2742 2528 
Q 2867 2355 2928 2134 
Q 2989 1914 2989 1683 
z
" transform="scale(0.015625)"/>
       <path id="HelveticaNeue-5a" d="M 742 1043 
L 198 1043 
Q 211 736 326 521 
Q 442 307 634 176 
Q 826 45 1075 -12 
Q 1325 -70 1600 -70 
Q 1850 -70 2102 -22 
Q 2355 26 2556 147 
Q 2758 269 2883 467 
Q 3008 666 3008 966 
Q 3008 1203 2915 1363 
Q 2822 1523 2672 1628 
Q 2522 1734 2326 1798 
Q 2131 1862 1926 1907 
Q 1734 1952 1542 1993 
Q 1350 2035 1196 2096 
Q 1043 2157 944 2249 
Q 845 2342 845 2483 
Q 845 2611 909 2691 
Q 973 2771 1075 2819 
Q 1178 2867 1302 2886 
Q 1427 2906 1549 2906 
Q 1683 2906 1814 2877 
Q 1946 2848 2054 2784 
Q 2163 2720 2233 2614 
Q 2304 2509 2317 2349 
L 2861 2349 
Q 2842 2650 2733 2851 
Q 2624 3053 2441 3171 
Q 2259 3290 2022 3338 
Q 1786 3386 1504 3386 
Q 1286 3386 1065 3331 
Q 845 3277 669 3165 
Q 493 3053 381 2873 
Q 269 2694 269 2445 
Q 269 2125 429 1945 
Q 589 1766 829 1667 
Q 1069 1568 1350 1513 
Q 1632 1459 1872 1392 
Q 2112 1325 2272 1216 
Q 2432 1107 2432 896 
Q 2432 742 2355 643 
Q 2278 544 2160 493 
Q 2042 442 1901 422 
Q 1760 403 1632 403 
Q 1466 403 1309 435 
Q 1152 467 1027 540 
Q 902 614 825 739 
Q 749 864 742 1043 
z
" transform="scale(0.015625)"/>
       <path id="HelveticaNeue-5d" d="M 1901 0 
L 3110 3309 
L 2541 3309 
L 1638 550 
L 1626 550 
L 698 3309 
L 90 3309 
L 1318 0 
L 1901 0 
z
" transform="scale(0.015625)"/>
       <path id="HelveticaNeue-50" d="M 986 3904 
L 986 4570 
L 442 4570 
L 442 3904 
L 986 3904 
z
M 442 3309 
L 442 0 
L 986 0 
L 986 3309 
L 442 3309 
z
" transform="scale(0.015625)"/>
       <path id="HelveticaNeue-55" d="M 410 3309 
L 410 0 
L 954 0 
L 954 1869 
Q 954 2093 1014 2281 
Q 1075 2470 1196 2611 
Q 1318 2752 1500 2829 
Q 1683 2906 1933 2906 
Q 2246 2906 2425 2726 
Q 2605 2547 2605 2240 
L 2605 0 
L 3149 0 
L 3149 2176 
Q 3149 2445 3094 2665 
Q 3040 2886 2905 3046 
Q 2771 3206 2553 3296 
Q 2336 3386 2010 3386 
Q 1274 3386 934 2784 
L 922 2784 
L 922 3309 
L 410 3309 
z
" transform="scale(0.015625)"/>
       <path id="HelveticaNeue-f" d="M 1306 -1261 
L 1722 -1261 
Q 1267 -525 1072 198 
Q 877 922 877 1728 
Q 877 2515 1069 3232 
Q 1261 3949 1722 4678 
L 1306 4678 
Q 806 4019 553 3251 
Q 301 2483 301 1728 
Q 301 1306 371 922 
Q 442 538 573 173 
Q 704 -192 889 -547 
Q 1075 -902 1306 -1261 
z
" transform="scale(0.015625)"/>
       <path id="HelveticaNeue-60" d="M 1709 -442 
Q 1613 -685 1520 -851 
Q 1427 -1018 1315 -1123 
Q 1203 -1229 1065 -1277 
Q 928 -1325 749 -1325 
Q 653 -1325 557 -1312 
Q 461 -1299 371 -1267 
L 371 -768 
Q 442 -800 534 -822 
Q 627 -845 691 -845 
Q 858 -845 970 -765 
Q 1082 -685 1139 -538 
L 1363 19 
L 51 3309 
L 666 3309 
L 1632 602 
L 1645 602 
L 2573 3309 
L 3149 3309 
L 1709 -442 
z
" transform="scale(0.015625)"/>
       <path id="HelveticaNeue-4a" d="M 2656 2246 
L 3219 2246 
Q 3187 2541 3065 2755 
Q 2944 2970 2755 3110 
Q 2566 3251 2320 3318 
Q 2074 3386 1792 3386 
Q 1402 3386 1107 3248 
Q 813 3110 617 2870 
Q 422 2630 326 2307 
Q 230 1984 230 1613 
Q 230 1242 329 931 
Q 429 621 624 397 
Q 819 173 1110 51 
Q 1402 -70 1779 -70 
Q 2413 -70 2781 262 
Q 3149 595 3238 1210 
L 2682 1210 
Q 2630 826 2403 614 
Q 2176 403 1773 403 
Q 1517 403 1331 505 
Q 1146 608 1030 777 
Q 915 947 860 1164 
Q 806 1382 806 1613 
Q 806 1862 857 2096 
Q 909 2330 1027 2509 
Q 1146 2688 1344 2797 
Q 1542 2906 1837 2906 
Q 2182 2906 2387 2733 
Q 2592 2560 2656 2246 
z
" transform="scale(0.015625)"/>
       <path id="HelveticaNeue-5c" d="M 3149 0 
L 3149 3309 
L 2605 3309 
L 2605 1440 
Q 2605 1216 2544 1027 
Q 2483 838 2361 697 
Q 2240 557 2057 480 
Q 1875 403 1626 403 
Q 1312 403 1133 582 
Q 954 762 954 1069 
L 954 3309 
L 410 3309 
L 410 1133 
Q 410 864 464 643 
Q 518 422 652 262 
Q 787 102 1004 16 
Q 1222 -70 1549 -70 
Q 1914 -70 2182 74 
Q 2451 218 2624 525 
L 2637 525 
L 2637 0 
L 3149 0 
z
" transform="scale(0.015625)"/>
       <path id="HelveticaNeue-54" d="M 410 3309 
L 410 0 
L 954 0 
L 954 2061 
Q 954 2157 1002 2301 
Q 1050 2445 1155 2579 
Q 1261 2714 1430 2810 
Q 1600 2906 1837 2906 
Q 2022 2906 2140 2851 
Q 2259 2797 2329 2697 
Q 2400 2598 2429 2464 
Q 2458 2330 2458 2170 
L 2458 0 
L 3002 0 
L 3002 2061 
Q 3002 2445 3232 2675 
Q 3462 2906 3866 2906 
Q 4064 2906 4189 2848 
Q 4314 2790 4384 2691 
Q 4454 2592 4480 2457 
Q 4506 2323 4506 2170 
L 4506 0 
L 5050 0 
L 5050 2426 
Q 5050 2682 4970 2864 
Q 4890 3046 4746 3161 
Q 4602 3277 4400 3331 
Q 4198 3386 3949 3386 
Q 3622 3386 3350 3238 
Q 3078 3091 2912 2822 
Q 2810 3130 2560 3258 
Q 2310 3386 2003 3386 
Q 1306 3386 934 2822 
L 922 2822 
L 922 3309 
L 410 3309 
z
" transform="scale(0.015625)"/>
       <path id="HelveticaNeue-10" d="M -58 -1261 
L 352 -1261 
Q 851 -602 1104 163 
Q 1357 928 1357 1683 
Q 1357 2106 1286 2490 
Q 1216 2874 1085 3242 
Q 954 3610 768 3965 
Q 582 4320 352 4678 
L -58 4678 
Q 390 3942 585 3216 
Q 781 2490 781 1683 
Q 781 902 589 182 
Q 397 -538 -58 -1261 
z
" transform="scale(0.015625)"/>
      </defs>
      <use xlink:href="#HelveticaNeue-3e"/>
      <use xlink:href="#HelveticaNeue-56" transform="translate(86.890625 0)"/>
      <use xlink:href="#HelveticaNeue-59" transform="translate(144.296875 0)"/>
      <use xlink:href="#HelveticaNeue-53" transform="translate(177.59375 0)"/>
      <use xlink:href="#HelveticaNeue-4b" transform="translate(199.796875 0)"/>
      <use xlink:href="#HelveticaNeue-3" transform="translate(259.09375 0)"/>
      <use xlink:href="#HelveticaNeue-48" transform="translate(286.890625 0)"/>
      <use xlink:href="#HelveticaNeue-4e" transform="translate(340.59375 0)"/>
      <use xlink:href="#HelveticaNeue-4c" transform="translate(398 0)"/>
      <use xlink:href="#HelveticaNeue-3" transform="translate(451.703125 0)"/>
      <use xlink:href="#HelveticaNeue-48" transform="translate(479.5 0)"/>
      <use xlink:href="#HelveticaNeue-5b" transform="translate(533.203125 0)"/>
      <use xlink:href="#HelveticaNeue-3" transform="translate(564.703125 0)"/>
      <use xlink:href="#HelveticaNeue-56" transform="translate(592.5 0)"/>
      <use xlink:href="#HelveticaNeue-49" transform="translate(649.90625 0)"/>
      <use xlink:href="#HelveticaNeue-5a" transform="translate(709.203125 0)"/>
      <use xlink:href="#HelveticaNeue-4c" transform="translate(759.203125 0)"/>
      <use xlink:href="#HelveticaNeue-59" transform="translate(812.90625 0)"/>
      <use xlink:href="#HelveticaNeue-5d" transform="translate(846.203125 0)"/>
      <use xlink:href="#HelveticaNeue-48" transform="translate(896.203125 0)"/>
      <use xlink:href="#HelveticaNeue-5b" transform="translate(949.90625 0)"/>
      <use xlink:href="#HelveticaNeue-50" transform="translate(981.40625 0)"/>
      <use xlink:href="#HelveticaNeue-56" transform="translate(1003.609375 0)"/>
      <use xlink:href="#HelveticaNeue-55" transform="translate(1061.015625 0)"/>
      <use xlink:href="#HelveticaNeue-3" transform="translate(1116.609375 0)"/>
      <use xlink:href="#HelveticaNeue-f" transform="translate(1144.40625 0)"/>
      <use xlink:href="#HelveticaNeue-4b" transform="translate(1170.3125 0)"/>
      <use xlink:href="#HelveticaNeue-48" transform="translate(1229.609375 0)"/>
      <use xlink:href="#HelveticaNeue-60" transform="translate(1283.3125 0)"/>
      <use xlink:href="#HelveticaNeue-5a" transform="translate(1333.3125 0)"/>
      <use xlink:href="#HelveticaNeue-3" transform="translate(1383.3125 0)"/>
      <use xlink:href="#HelveticaNeue-5a" transform="translate(1411.109375 0)"/>
      <use xlink:href="#HelveticaNeue-50" transform="translate(1461.109375 0)"/>
      <use xlink:href="#HelveticaNeue-55" transform="translate(1483.3125 0)"/>
      <use xlink:href="#HelveticaNeue-4a" transform="translate(1538.90625 0)"/>
      <use xlink:href="#HelveticaNeue-4c" transform="translate(1592.609375 0)"/>
      <use xlink:href="#HelveticaNeue-3" transform="translate(1646.3125 0)"/>
      <use xlink:href="#HelveticaNeue-4b" transform="translate(1674.109375 0)"/>
      <use xlink:href="#HelveticaNeue-56" transform="translate(1733.40625 0)"/>
      <use xlink:href="#HelveticaNeue-4a" transform="translate(1790.8125 0)"/>
      <use xlink:href="#HelveticaNeue-5c" transform="translate(1844.515625 0)"/>
      <use xlink:href="#HelveticaNeue-54" transform="translate(1900.109375 0)"/>
      <use xlink:href="#HelveticaNeue-4c" transform="translate(1985.40625 0)"/>
      <use xlink:href="#HelveticaNeue-55" transform="translate(2039.109375 0)"/>
      <use xlink:href="#HelveticaNeue-5b" transform="translate(2094.703125 0)"/>
      <use xlink:href="#HelveticaNeue-4c" transform="translate(2126.203125 0)"/>
      <use xlink:href="#HelveticaNeue-4b" transform="translate(2179.90625 0)"/>
      <use xlink:href="#HelveticaNeue-3" transform="translate(2239.203125 0)"/>
      <use xlink:href="#HelveticaNeue-4a" transform="translate(2267 0)"/>
      <use xlink:href="#HelveticaNeue-59" transform="translate(2320.703125 0)"/>
      <use xlink:href="#HelveticaNeue-4c" transform="translate(2352.203125 0)"/>
      <use xlink:href="#HelveticaNeue-48" transform="translate(2405.90625 0)"/>
      <use xlink:href="#HelveticaNeue-5b" transform="translate(2459.609375 0)"/>
      <use xlink:href="#HelveticaNeue-50" transform="translate(2491.109375 0)"/>
      <use xlink:href="#HelveticaNeue-56" transform="translate(2513.3125 0)"/>
      <use xlink:href="#HelveticaNeue-55" transform="translate(2570.71875 0)"/>
      <use xlink:href="#HelveticaNeue-10" transform="translate(2626.3125 0)"/>
     </g>
    </g>
   </g>
   <g id="matplotlib.axis_2">
    <g id="ytick_1">
     <g id="line2d_7"/>
     <g id="text_8">
      <!-- 0 -->
      <g style="fill: #6e6e6e" transform="translate(36.838875 279.797142) scale(0.076 -0.076)">
       <use xlink:href="#HelveticaNeue-17"/>
      </g>
     </g>
    </g>
    <g id="ytick_2">
     <g id="line2d_8"/>
     <g id="text_9">
      <!-- 15,000 -->
      <g style="fill: #6e6e6e" transform="translate(17.825813 191.107511) scale(0.076 -0.076)">
       <defs>
        <path id="HelveticaNeue-13" d="M 531 710 
L 531 0 
L 909 0 
Q 915 -77 899 -166 
Q 883 -256 838 -342 
Q 794 -429 720 -502 
Q 646 -576 538 -614 
L 538 -934 
Q 909 -826 1075 -563 
Q 1242 -301 1242 64 
L 1242 710 
L 531 710 
z
" transform="scale(0.015625)"/>
       </defs>
       <use xlink:href="#HelveticaNeue-18"/>
       <use xlink:href="#HelveticaNeue-1c" transform="translate(55.59375 0)"/>
       <use xlink:href="#HelveticaNeue-13" transform="translate(111.1875 0)"/>
       <use xlink:href="#HelveticaNeue-17" transform="translate(138.984375 0)"/>
       <use xlink:href="#HelveticaNeue-17" transform="translate(194.578125 0)"/>
       <use xlink:href="#HelveticaNeue-17" transform="translate(250.171875 0)"/>
      </g>
     </g>
    </g>
    <g id="ytick_3">
     <g id="line2d_9"/>
     <g id="text_10">
      <!-- 30,000 -->
      <g style="fill: #6e6e6e" transform="translate(17.825813 102.417881) scale(0.076 -0.076)">
       <use xlink:href="#HelveticaNeue-1a"/>
       <use xlink:href="#HelveticaNeue-17" transform="translate(55.59375 0)"/>
       <use xlink:href="#HelveticaNeue-13" transform="translate(111.1875 0)"/>
       <use xlink:href="#HelveticaNeue-17" transform="translate(138.984375 0)"/>
       <use xlink:href="#HelveticaNeue-17" transform="translate(194.578125 0)"/>
       <use xlink:href="#HelveticaNeue-17" transform="translate(250.171875 0)"/>
      </g>
     </g>
    </g>
    <g id="text_11">
     <!-- GP per TC -->
     <g style="fill: #6e6e6e" transform="translate(12.121813 167.928125) rotate(-90) scale(0.08 -0.08)">
      <defs>
       <path id="HelveticaNeue-2e" d="M 3917 570 
L 4077 0 
L 4461 0 
L 4461 2406 
L 2458 2406 
L 2458 1894 
L 3917 1894 
Q 3930 1581 3834 1309 
Q 3738 1037 3549 835 
Q 3360 634 3085 518 
Q 2810 403 2451 403 
Q 2067 403 1776 553 
Q 1485 704 1286 957 
Q 1088 1210 985 1539 
Q 883 1869 883 2227 
Q 883 2592 972 2941 
Q 1062 3290 1251 3562 
Q 1440 3834 1737 4000 
Q 2035 4166 2451 4166 
Q 2707 4166 2934 4105 
Q 3162 4045 3341 3923 
Q 3520 3802 3641 3613 
Q 3763 3424 3808 3162 
L 4416 3162 
Q 4352 3565 4176 3849 
Q 4000 4134 3741 4320 
Q 3482 4506 3152 4592 
Q 2822 4678 2451 4678 
Q 1907 4678 1500 4476 
Q 1094 4275 822 3936 
Q 550 3597 412 3145 
Q 275 2694 275 2195 
Q 275 1747 422 1331 
Q 570 915 851 595 
Q 1133 275 1536 86 
Q 1939 -102 2451 -102 
Q 2854 -102 3251 54 
Q 3648 211 3917 570 
z
" transform="scale(0.015625)"/>
       <path id="HelveticaNeue-37" d="M 1107 2381 
L 1107 4058 
L 2298 4058 
Q 2816 4058 3056 3843 
Q 3296 3629 3296 3219 
Q 3296 2810 3056 2592 
Q 2816 2374 2298 2381 
L 1107 2381 
z
M 499 4570 
L 499 0 
L 1107 0 
L 1107 1869 
L 2502 1869 
Q 3194 1862 3549 2220 
Q 3904 2579 3904 3219 
Q 3904 3859 3549 4214 
Q 3194 4570 2502 4570 
L 499 4570 
z
" transform="scale(0.015625)"/>
       <path id="HelveticaNeue-57" d="M 429 3309 
L 429 -1261 
L 973 -1261 
L 973 442 
L 986 442 
Q 1075 294 1206 195 
Q 1338 96 1485 38 
Q 1632 -19 1782 -44 
Q 1933 -70 2054 -70 
Q 2432 -70 2717 64 
Q 3002 198 3190 432 
Q 3379 666 3472 979 
Q 3565 1293 3565 1645 
Q 3565 1997 3469 2310 
Q 3373 2624 3184 2864 
Q 2995 3104 2710 3245 
Q 2426 3386 2042 3386 
Q 1696 3386 1408 3261 
Q 1120 3136 986 2861 
L 973 2861 
L 973 3309 
L 429 3309 
z
M 2989 1683 
Q 2989 1440 2937 1209 
Q 2886 979 2771 800 
Q 2656 621 2467 512 
Q 2278 403 1997 403 
Q 1715 403 1516 508 
Q 1318 614 1193 787 
Q 1069 960 1011 1187 
Q 954 1414 954 1658 
Q 954 1888 1008 2112 
Q 1062 2336 1184 2512 
Q 1306 2688 1498 2797 
Q 1690 2906 1965 2906 
Q 2227 2906 2422 2803 
Q 2618 2701 2742 2528 
Q 2867 2355 2928 2134 
Q 2989 1914 2989 1683 
z
" transform="scale(0.015625)"/>
       <path id="HelveticaNeue-3b" d="M 1536 4058 
L 1536 0 
L 2144 0 
L 2144 4058 
L 3667 4058 
L 3667 4570 
L 13 4570 
L 13 4058 
L 1536 4058 
z
" transform="scale(0.015625)"/>
       <path id="HelveticaNeue-2a" d="M 3712 3194 
L 4320 3194 
Q 4269 3558 4102 3836 
Q 3936 4115 3686 4300 
Q 3437 4486 3117 4582 
Q 2797 4678 2438 4678 
Q 1914 4678 1507 4489 
Q 1101 4301 829 3974 
Q 557 3648 416 3209 
Q 275 2771 275 2272 
Q 275 1773 406 1337 
Q 538 902 800 582 
Q 1062 262 1459 80 
Q 1856 -102 2387 -102 
Q 3264 -102 3769 378 
Q 4275 858 4365 1722 
L 3757 1722 
Q 3738 1440 3642 1197 
Q 3546 954 3376 778 
Q 3206 602 2972 502 
Q 2739 403 2438 403 
Q 2029 403 1734 556 
Q 1440 710 1251 969 
Q 1062 1229 972 1577 
Q 883 1926 883 2317 
Q 883 2675 972 3008 
Q 1062 3341 1251 3600 
Q 1440 3859 1731 4012 
Q 2022 4166 2432 4166 
Q 2912 4166 3261 3923 
Q 3610 3680 3712 3194 
z
" transform="scale(0.015625)"/>
      </defs>
      <use xlink:href="#HelveticaNeue-2e"/>
      <use xlink:href="#HelveticaNeue-37" transform="translate(75.90625 0)"/>
      <use xlink:href="#HelveticaNeue-3" transform="translate(140.703125 0)"/>
      <use xlink:href="#HelveticaNeue-57" transform="translate(168.5 0)"/>
      <use xlink:href="#HelveticaNeue-4c" transform="translate(227.796875 0)"/>
      <use xlink:href="#HelveticaNeue-59" transform="translate(281.5 0)"/>
      <use xlink:href="#HelveticaNeue-3" transform="translate(314.796875 0)"/>
      <use xlink:href="#HelveticaNeue-3b" transform="translate(342.59375 0)"/>
      <use xlink:href="#HelveticaNeue-2a" transform="translate(400 0)"/>
     </g>
    </g>
   </g>
   <g id="line2d_10">
    <path d="M 44.064 39.751565 
L 510.624 39.751565 
" clip-path="url(#pc47c7f1a7d)" style="fill: none; stroke-dasharray: 0.8,1.32; stroke-dashoffset: 0; stroke: #d9d9d9; stroke-width: 0.8"/>
   </g>
   <g id="text_12">
    <!--  cross-world mean -->
    <g style="fill: #d9d9d9" transform="translate(416.522507 42.404565) scale(0.07 -0.07)">
     <defs>
      <path id="HelveticaNeue-Bold-3" transform="scale(0.015625)"/>
      <path id="HelveticaNeue-Bold-4a" d="M 2598 2144 
L 3488 2144 
Q 3469 2464 3334 2697 
Q 3200 2931 2985 3088 
Q 2771 3245 2499 3321 
Q 2227 3398 1933 3398 
Q 1530 3398 1216 3264 
Q 902 3130 684 2890 
Q 467 2650 355 2320 
Q 243 1990 243 1606 
Q 243 1235 364 924 
Q 486 614 704 390 
Q 922 166 1232 41 
Q 1542 -83 1914 -83 
Q 2573 -83 2995 262 
Q 3418 608 3507 1267 
L 2630 1267 
Q 2586 960 2410 777 
Q 2234 595 1907 595 
Q 1696 595 1549 691 
Q 1402 787 1315 937 
Q 1229 1088 1190 1273 
Q 1152 1459 1152 1638 
Q 1152 1824 1190 2013 
Q 1229 2202 1321 2358 
Q 1414 2515 1561 2614 
Q 1709 2714 1926 2714 
Q 2509 2714 2598 2144 
z
" transform="scale(0.015625)"/>
      <path id="HelveticaNeue-Bold-59" d="M 346 3309 
L 346 0 
L 1254 0 
L 1254 1491 
Q 1254 1715 1299 1907 
Q 1344 2099 1449 2243 
Q 1555 2387 1728 2470 
Q 1901 2554 2150 2554 
Q 2234 2554 2323 2544 
Q 2413 2534 2477 2522 
L 2477 3366 
Q 2368 3398 2278 3398 
Q 2106 3398 1946 3347 
Q 1786 3296 1645 3203 
Q 1504 3110 1395 2979 
Q 1286 2848 1222 2694 
L 1210 2694 
L 1210 3309 
L 346 3309 
z
" transform="scale(0.015625)"/>
      <path id="HelveticaNeue-Bold-56" d="M 1152 1651 
Q 1152 1850 1190 2042 
Q 1229 2234 1321 2381 
Q 1414 2528 1568 2621 
Q 1722 2714 1952 2714 
Q 2182 2714 2339 2621 
Q 2496 2528 2589 2381 
Q 2682 2234 2720 2042 
Q 2758 1850 2758 1651 
Q 2758 1453 2720 1264 
Q 2682 1075 2589 924 
Q 2496 774 2339 684 
Q 2182 595 1952 595 
Q 1722 595 1568 684 
Q 1414 774 1321 924 
Q 1229 1075 1190 1264 
Q 1152 1453 1152 1651 
z
M 243 1651 
Q 243 1254 364 934 
Q 486 614 710 387 
Q 934 160 1248 38 
Q 1562 -83 1952 -83 
Q 2342 -83 2659 38 
Q 2976 160 3200 387 
Q 3424 614 3545 934 
Q 3667 1254 3667 1651 
Q 3667 2048 3545 2371 
Q 3424 2694 3200 2921 
Q 2976 3149 2659 3273 
Q 2342 3398 1952 3398 
Q 1562 3398 1248 3273 
Q 934 3149 710 2921 
Q 486 2694 364 2371 
Q 243 2048 243 1651 
z
" transform="scale(0.015625)"/>
      <path id="HelveticaNeue-Bold-5a" d="M 1050 1075 
L 186 1075 
Q 198 742 336 521 
Q 474 301 688 166 
Q 902 32 1177 -25 
Q 1453 -83 1741 -83 
Q 2022 -83 2294 -28 
Q 2566 26 2777 160 
Q 2989 294 3120 515 
Q 3251 736 3251 1062 
Q 3251 1293 3161 1449 
Q 3072 1606 2925 1712 
Q 2778 1818 2589 1882 
Q 2400 1946 2202 1990 
Q 2010 2035 1824 2073 
Q 1638 2112 1494 2160 
Q 1350 2208 1260 2285 
Q 1171 2362 1171 2483 
Q 1171 2586 1222 2646 
Q 1274 2707 1347 2739 
Q 1421 2771 1510 2780 
Q 1600 2790 1677 2790 
Q 1920 2790 2099 2697 
Q 2278 2605 2298 2342 
L 3162 2342 
Q 3136 2650 3005 2851 
Q 2874 3053 2675 3174 
Q 2477 3296 2224 3347 
Q 1971 3398 1702 3398 
Q 1434 3398 1178 3350 
Q 922 3302 717 3184 
Q 512 3066 387 2861 
Q 262 2656 262 2336 
Q 262 2118 352 1968 
Q 442 1818 589 1718 
Q 736 1619 925 1558 
Q 1114 1498 1312 1453 
Q 1798 1350 2070 1248 
Q 2342 1146 2342 941 
Q 2342 819 2284 739 
Q 2227 659 2140 611 
Q 2054 563 1948 540 
Q 1843 518 1747 518 
Q 1613 518 1488 550 
Q 1363 582 1267 649 
Q 1171 717 1110 822 
Q 1050 928 1050 1075 
z
" transform="scale(0.015625)"/>
      <path id="HelveticaNeue-Bold-14" d="M 339 2138 
L 339 1357 
L 2266 1357 
L 2266 2138 
L 339 2138 
z
" transform="scale(0.015625)"/>
      <path id="HelveticaNeue-Bold-5e" d="M 4128 0 
L 5171 3309 
L 4237 3309 
L 3629 1069 
L 3616 1069 
L 3053 3309 
L 2170 3309 
L 1619 1062 
L 1606 1062 
L 998 3309 
L 38 3309 
L 1088 0 
L 2029 0 
L 2592 2221 
L 2605 2221 
L 3194 0 
L 4128 0 
z
" transform="scale(0.015625)"/>
      <path id="HelveticaNeue-Bold-53" d="M 371 4570 
L 371 0 
L 1280 0 
L 1280 4570 
L 371 4570 
z
" transform="scale(0.015625)"/>
      <path id="HelveticaNeue-Bold-4b" d="M 2694 1664 
Q 2694 1459 2656 1267 
Q 2618 1075 2528 924 
Q 2438 774 2288 684 
Q 2138 595 1914 595 
Q 1702 595 1552 688 
Q 1402 781 1302 931 
Q 1203 1082 1158 1274 
Q 1114 1466 1114 1658 
Q 1114 1862 1155 2051 
Q 1197 2240 1289 2387 
Q 1382 2534 1536 2624 
Q 1690 2714 1914 2714 
Q 2138 2714 2285 2624 
Q 2432 2534 2525 2390 
Q 2618 2246 2656 2057 
Q 2694 1869 2694 1664 
z
M 2707 422 
L 2707 0 
L 3571 0 
L 3571 4570 
L 2662 4570 
L 2662 2906 
L 2650 2906 
Q 2496 3149 2230 3273 
Q 1965 3398 1670 3398 
Q 1306 3398 1030 3254 
Q 755 3110 572 2873 
Q 390 2637 297 2326 
Q 205 2016 205 1683 
Q 205 1338 297 1018 
Q 390 698 572 451 
Q 755 205 1036 61 
Q 1318 -83 1690 -83 
Q 2016 -83 2275 35 
Q 2534 154 2694 422 
L 2707 422 
z
" transform="scale(0.015625)"/>
      <path id="HelveticaNeue-Bold-54" d="M 371 3309 
L 371 0 
L 1280 0 
L 1280 1920 
Q 1280 2163 1350 2313 
Q 1421 2464 1520 2544 
Q 1619 2624 1724 2653 
Q 1830 2682 1894 2682 
Q 2112 2682 2224 2608 
Q 2336 2534 2384 2412 
Q 2432 2291 2438 2147 
Q 2445 2003 2445 1856 
L 2445 0 
L 3354 0 
L 3354 1843 
Q 3354 1997 3376 2147 
Q 3398 2298 3465 2416 
Q 3533 2534 3651 2608 
Q 3770 2682 3962 2682 
Q 4154 2682 4266 2618 
Q 4378 2554 4435 2445 
Q 4493 2336 4505 2189 
Q 4518 2042 4518 1875 
L 4518 0 
L 5427 0 
L 5427 2214 
Q 5427 2534 5337 2761 
Q 5248 2989 5088 3129 
Q 4928 3270 4704 3334 
Q 4480 3398 4218 3398 
Q 3872 3398 3619 3232 
Q 3366 3066 3219 2848 
Q 3085 3155 2825 3276 
Q 2566 3398 2253 3398 
Q 1926 3398 1673 3257 
Q 1421 3117 1242 2861 
L 1229 2861 
L 1229 3309 
L 371 3309 
z
" transform="scale(0.015625)"/>
      <path id="HelveticaNeue-Bold-4c" d="M 2573 2010 
L 1094 2010 
Q 1101 2106 1136 2227 
Q 1171 2349 1257 2457 
Q 1344 2566 1488 2640 
Q 1632 2714 1850 2714 
Q 2182 2714 2345 2534 
Q 2509 2355 2573 2010 
z
M 1094 1434 
L 3482 1434 
Q 3507 1818 3417 2170 
Q 3328 2522 3126 2797 
Q 2925 3072 2611 3235 
Q 2298 3398 1875 3398 
Q 1498 3398 1187 3264 
Q 877 3130 653 2896 
Q 429 2662 307 2342 
Q 186 2022 186 1651 
Q 186 1267 304 947 
Q 422 627 640 396 
Q 858 166 1171 41 
Q 1485 -83 1875 -83 
Q 2438 -83 2835 173 
Q 3232 429 3424 1024 
L 2624 1024 
Q 2579 870 2380 732 
Q 2182 595 1907 595 
Q 1523 595 1318 793 
Q 1114 992 1094 1434 
z
" transform="scale(0.015625)"/>
      <path id="HelveticaNeue-Bold-48" d="M 307 2291 
Q 326 2611 467 2822 
Q 608 3034 825 3162 
Q 1043 3290 1315 3344 
Q 1587 3398 1862 3398 
Q 2112 3398 2368 3363 
Q 2624 3328 2835 3225 
Q 3046 3123 3180 2940 
Q 3315 2758 3315 2458 
L 3315 736 
Q 3315 512 3340 307 
Q 3366 102 3430 0 
L 2509 0 
Q 2483 77 2467 157 
Q 2451 237 2445 320 
Q 2227 96 1932 6 
Q 1638 -83 1331 -83 
Q 1094 -83 889 -25 
Q 685 32 531 153 
Q 378 275 291 460 
Q 205 646 205 902 
Q 205 1184 304 1366 
Q 403 1549 560 1657 
Q 717 1766 918 1820 
Q 1120 1875 1325 1907 
Q 1530 1939 1728 1958 
Q 1926 1978 2080 2016 
Q 2234 2054 2323 2128 
Q 2413 2202 2406 2342 
Q 2406 2490 2358 2576 
Q 2310 2662 2230 2710 
Q 2150 2758 2044 2774 
Q 1939 2790 1818 2790 
Q 1549 2790 1395 2675 
Q 1242 2560 1216 2291 
L 307 2291 
z
M 2406 1619 
Q 2349 1568 2262 1539 
Q 2176 1510 2077 1491 
Q 1978 1472 1869 1459 
Q 1760 1446 1651 1427 
Q 1549 1408 1449 1376 
Q 1350 1344 1276 1289 
Q 1203 1235 1158 1152 
Q 1114 1069 1114 941 
Q 1114 819 1158 736 
Q 1203 653 1280 605 
Q 1357 557 1459 537 
Q 1562 518 1670 518 
Q 1939 518 2086 608 
Q 2234 698 2304 822 
Q 2374 947 2390 1075 
Q 2406 1203 2406 1280 
L 2406 1619 
z
" transform="scale(0.015625)"/>
      <path id="HelveticaNeue-Bold-55" d="M 346 3309 
L 346 0 
L 1254 0 
L 1254 1734 
Q 1254 2240 1420 2461 
Q 1587 2682 1958 2682 
Q 2285 2682 2413 2480 
Q 2541 2278 2541 1869 
L 2541 0 
L 3450 0 
L 3450 2035 
Q 3450 2342 3395 2595 
Q 3341 2848 3206 3024 
Q 3072 3200 2838 3299 
Q 2605 3398 2240 3398 
Q 1952 3398 1677 3267 
Q 1402 3136 1229 2848 
L 1210 2848 
L 1210 3309 
L 346 3309 
z
" transform="scale(0.015625)"/>
     </defs>
     <use xlink:href="#HelveticaNeue-Bold-3"/>
     <use xlink:href="#HelveticaNeue-Bold-4a" transform="translate(27.796875 0)"/>
     <use xlink:href="#HelveticaNeue-Bold-59" transform="translate(85.203125 0)"/>
     <use xlink:href="#HelveticaNeue-Bold-56" transform="translate(122.3125 0)"/>
     <use xlink:href="#HelveticaNeue-Bold-5a" transform="translate(183.40625 0)"/>
     <use xlink:href="#HelveticaNeue-Bold-5a" transform="translate(237.109375 0)"/>
     <use xlink:href="#HelveticaNeue-Bold-14" transform="translate(290.8125 0)"/>
     <use xlink:href="#HelveticaNeue-Bold-5e" transform="translate(331.515625 0)"/>
     <use xlink:href="#HelveticaNeue-Bold-56" transform="translate(412.921875 0)"/>
     <use xlink:href="#HelveticaNeue-Bold-59" transform="translate(474.015625 0)"/>
     <use xlink:href="#HelveticaNeue-Bold-53" transform="translate(512.921875 0)"/>
     <use xlink:href="#HelveticaNeue-Bold-4b" transform="translate(538.71875 0)"/>
     <use xlink:href="#HelveticaNeue-Bold-3" transform="translate(599.8125 0)"/>
     <use xlink:href="#HelveticaNeue-Bold-54" transform="translate(627.609375 0)"/>
     <use xlink:href="#HelveticaNeue-Bold-4c" transform="translate(718.203125 0)"/>
     <use xlink:href="#HelveticaNeue-Bold-48" transform="translate(775.609375 0)"/>
     <use xlink:href="#HelveticaNeue-Bold-55" transform="translate(833.015625 0)"/>
    </g>
   </g>
   <g id="text_13">
    <!--  Merge destinations (n=20) -->
    <g style="fill: #f28e2b" transform="translate(74.436537 38.777714) scale(0.074 -0.074)">
     <defs>
      <path id="HelveticaNeue-Bold-34" d="M 442 4570 
L 442 0 
L 1382 0 
L 1382 3206 
L 1395 3206 
L 2515 0 
L 3290 0 
L 4410 3238 
L 4422 3238 
L 4422 0 
L 5363 0 
L 5363 4570 
L 3949 4570 
L 2938 1427 
L 2925 1427 
L 1856 4570 
L 442 4570 
z
" transform="scale(0.015625)"/>
      <path id="HelveticaNeue-Bold-4e" d="M 1888 781 
Q 1677 781 1536 870 
Q 1395 960 1308 1101 
Q 1222 1242 1187 1418 
Q 1152 1594 1152 1773 
Q 1152 1958 1193 2128 
Q 1235 2298 1328 2429 
Q 1421 2560 1558 2637 
Q 1696 2714 1888 2714 
Q 2112 2714 2259 2630 
Q 2406 2547 2496 2406 
Q 2586 2266 2624 2083 
Q 2662 1901 2662 1696 
Q 2662 1517 2614 1353 
Q 2566 1190 2470 1062 
Q 2374 934 2227 857 
Q 2080 781 1888 781 
z
M 3526 211 
L 3526 3309 
L 2662 3309 
L 2662 2867 
L 2650 2867 
Q 2483 3155 2236 3276 
Q 1990 3398 1664 3398 
Q 1318 3398 1052 3264 
Q 787 3130 608 2902 
Q 429 2675 336 2377 
Q 243 2080 243 1760 
Q 243 1421 323 1117 
Q 403 813 576 585 
Q 749 358 1017 227 
Q 1286 96 1658 96 
Q 1958 96 2230 221 
Q 2502 346 2650 608 
L 2662 608 
L 2662 173 
Q 2669 -179 2493 -409 
Q 2317 -640 1933 -640 
Q 1690 -640 1504 -541 
Q 1318 -442 1254 -186 
L 352 -186 
Q 371 -467 508 -668 
Q 646 -870 854 -998 
Q 1062 -1126 1315 -1187 
Q 1568 -1248 1811 -1248 
Q 2381 -1248 2720 -1094 
Q 3059 -941 3238 -720 
Q 3418 -499 3472 -243 
Q 3526 13 3526 211 
z
" transform="scale(0.015625)"/>
      <path id="HelveticaNeue-Bold-5b" d="M 1498 3309 
L 1498 4301 
L 589 4301 
L 589 3309 
L 38 3309 
L 38 2701 
L 589 2701 
L 589 749 
Q 589 499 672 345 
Q 755 192 899 109 
Q 1043 26 1232 -3 
Q 1421 -32 1632 -32 
Q 1766 -32 1907 -25 
Q 2048 -19 2163 0 
L 2163 704 
Q 2099 691 2028 684 
Q 1958 678 1882 678 
Q 1651 678 1574 755 
Q 1498 832 1498 1062 
L 1498 2701 
L 2163 2701 
L 2163 3309 
L 1498 3309 
z
" transform="scale(0.015625)"/>
      <path id="HelveticaNeue-Bold-50" d="M 1280 3821 
L 1280 4570 
L 371 4570 
L 371 3821 
L 1280 3821 
z
M 371 3309 
L 371 0 
L 1280 0 
L 1280 3309 
L 371 3309 
z
" transform="scale(0.015625)"/>
      <path id="HelveticaNeue-Bold-f" d="M 1939 4678 
L 1178 4678 
Q 966 4371 809 4006 
Q 653 3642 547 3251 
Q 442 2861 387 2467 
Q 333 2074 333 1715 
Q 333 960 553 230 
Q 774 -499 1178 -1158 
L 1933 -1158 
Q 1568 -461 1405 275 
Q 1242 1011 1242 1779 
Q 1242 2534 1408 3267 
Q 1574 4000 1939 4678 
z
" transform="scale(0.015625)"/>
      <path id="HelveticaNeue-Bold-24" d="M 3539 589 
L 3539 1274 
L 307 1274 
L 307 589 
L 3539 589 
z
M 3539 1958 
L 3539 2643 
L 307 2643 
L 307 1958 
L 3539 1958 
z
" transform="scale(0.015625)"/>
      <path id="HelveticaNeue-Bold-19" d="M 237 2758 
L 1107 2758 
Q 1107 2938 1142 3120 
Q 1178 3302 1261 3452 
Q 1344 3603 1481 3696 
Q 1619 3789 1818 3789 
Q 2112 3789 2301 3606 
Q 2490 3424 2490 3098 
Q 2490 2893 2397 2733 
Q 2304 2573 2166 2445 
Q 2029 2317 1862 2211 
Q 1696 2106 1549 2003 
Q 1261 1805 1001 1613 
Q 742 1421 550 1193 
Q 358 966 246 678 
Q 134 390 134 0 
L 3424 0 
L 3424 781 
L 1306 781 
Q 1472 1011 1689 1184 
Q 1907 1357 2137 1507 
Q 2368 1658 2595 1811 
Q 2822 1965 3001 2153 
Q 3181 2342 3289 2585 
Q 3398 2829 3398 3168 
Q 3398 3494 3273 3756 
Q 3149 4019 2937 4198 
Q 2726 4378 2448 4474 
Q 2170 4570 1862 4570 
Q 1459 4570 1148 4432 
Q 838 4294 633 4048 
Q 429 3802 326 3472 
Q 224 3142 237 2758 
z
" transform="scale(0.015625)"/>
      <path id="HelveticaNeue-Bold-17" d="M 1043 2259 
Q 1043 2374 1046 2537 
Q 1050 2701 1069 2873 
Q 1088 3046 1133 3216 
Q 1178 3386 1258 3520 
Q 1338 3654 1462 3737 
Q 1587 3821 1773 3821 
Q 1958 3821 2086 3737 
Q 2214 3654 2297 3520 
Q 2381 3386 2422 3216 
Q 2464 3046 2486 2873 
Q 2509 2701 2512 2537 
Q 2515 2374 2515 2259 
Q 2515 2067 2502 1795 
Q 2490 1523 2422 1270 
Q 2355 1018 2204 838 
Q 2054 659 1773 659 
Q 1498 659 1350 838 
Q 1203 1018 1136 1270 
Q 1069 1523 1056 1795 
Q 1043 2067 1043 2259 
z
M 134 2259 
Q 134 1587 265 1136 
Q 397 685 621 416 
Q 845 147 1142 32 
Q 1440 -83 1773 -83 
Q 2112 -83 2409 32 
Q 2707 147 2934 416 
Q 3162 685 3293 1136 
Q 3424 1587 3424 2259 
Q 3424 2912 3293 3357 
Q 3162 3802 2934 4070 
Q 2707 4339 2409 4454 
Q 2112 4570 1773 4570 
Q 1440 4570 1142 4454 
Q 845 4339 621 4070 
Q 397 3802 265 3357 
Q 134 2912 134 2259 
z
" transform="scale(0.015625)"/>
      <path id="HelveticaNeue-Bold-10" d="M -38 -1158 
L 717 -1158 
Q 928 -858 1088 -493 
Q 1248 -128 1353 259 
Q 1459 646 1510 1040 
Q 1562 1434 1562 1792 
Q 1562 2547 1341 3283 
Q 1120 4019 717 4678 
L -32 4678 
Q 320 3981 486 3238 
Q 653 2496 653 1728 
Q 653 973 483 246 
Q 314 -480 -38 -1158 
z
" transform="scale(0.015625)"/>
     </defs>
     <use xlink:href="#HelveticaNeue-Bold-3"/>
     <use xlink:href="#HelveticaNeue-Bold-34" transform="translate(27.796875 0)"/>
     <use xlink:href="#HelveticaNeue-Bold-4c" transform="translate(118.5 0)"/>
     <use xlink:href="#HelveticaNeue-Bold-59" transform="translate(175.90625 0)"/>
     <use xlink:href="#HelveticaNeue-Bold-4e" transform="translate(212.015625 0)"/>
     <use xlink:href="#HelveticaNeue-Bold-4c" transform="translate(273.109375 0)"/>
     <use xlink:href="#HelveticaNeue-Bold-3" transform="translate(330.515625 0)"/>
     <use xlink:href="#HelveticaNeue-Bold-4b" transform="translate(358.3125 0)"/>
     <use xlink:href="#HelveticaNeue-Bold-4c" transform="translate(419.40625 0)"/>
     <use xlink:href="#HelveticaNeue-Bold-5a" transform="translate(476.8125 0)"/>
     <use xlink:href="#HelveticaNeue-Bold-5b" transform="translate(530.515625 0)"/>
     <use xlink:href="#HelveticaNeue-Bold-50" transform="translate(565.71875 0)"/>
     <use xlink:href="#HelveticaNeue-Bold-55" transform="translate(591.515625 0)"/>
     <use xlink:href="#HelveticaNeue-Bold-48" transform="translate(650.8125 0)"/>
     <use xlink:href="#HelveticaNeue-Bold-5b" transform="translate(708.21875 0)"/>
     <use xlink:href="#HelveticaNeue-Bold-50" transform="translate(743.421875 0)"/>
     <use xlink:href="#HelveticaNeue-Bold-56" transform="translate(769.21875 0)"/>
     <use xlink:href="#HelveticaNeue-Bold-55" transform="translate(830.3125 0)"/>
     <use xlink:href="#HelveticaNeue-Bold-5a" transform="translate(889.609375 0)"/>
     <use xlink:href="#HelveticaNeue-Bold-3" transform="translate(943.3125 0)"/>
     <use xlink:href="#HelveticaNeue-Bold-f" transform="translate(971.109375 0)"/>
     <use xlink:href="#HelveticaNeue-Bold-55" transform="translate(1000.703125 0)"/>
     <use xlink:href="#HelveticaNeue-Bold-24" transform="translate(1060 0)"/>
     <use xlink:href="#HelveticaNeue-Bold-19" transform="translate(1120 0)"/>
     <use xlink:href="#HelveticaNeue-Bold-17" transform="translate(1175.59375 0)"/>
     <use xlink:href="#HelveticaNeue-Bold-10" transform="translate(1231.1875 0)"/>
    </g>
   </g>
   <g id="text_14">
    <!--  Genuine launches (n=29) -->
    <g style="fill: #4e79a7" transform="translate(74.436537 276.935509) scale(0.074 -0.074)">
     <defs>
      <path id="HelveticaNeue-Bold-2e" d="M 3744 518 
L 3846 0 
L 4486 0 
L 4486 2470 
L 2566 2470 
L 2566 1722 
L 3578 1722 
Q 3533 1242 3261 989 
Q 2989 736 2490 736 
Q 2150 736 1913 867 
Q 1677 998 1529 1216 
Q 1382 1434 1315 1706 
Q 1248 1978 1248 2266 
Q 1248 2566 1315 2848 
Q 1382 3130 1529 3350 
Q 1677 3571 1913 3702 
Q 2150 3834 2490 3834 
Q 2854 3834 3110 3642 
Q 3366 3450 3456 3066 
L 4416 3066 
Q 4378 3456 4205 3757 
Q 4032 4058 3766 4262 
Q 3501 4467 3171 4572 
Q 2842 4678 2490 4678 
Q 1965 4678 1545 4492 
Q 1126 4307 838 3980 
Q 550 3654 396 3216 
Q 243 2778 243 2266 
Q 243 1766 396 1334 
Q 550 902 838 582 
Q 1126 262 1545 80 
Q 1965 -102 2490 -102 
Q 2822 -102 3148 35 
Q 3475 173 3744 518 
z
" transform="scale(0.015625)"/>
      <path id="HelveticaNeue-Bold-5c" d="M 3450 0 
L 3450 3309 
L 2541 3309 
L 2541 1574 
Q 2541 1069 2374 848 
Q 2208 627 1837 627 
Q 1510 627 1382 828 
Q 1254 1030 1254 1440 
L 1254 3309 
L 346 3309 
L 346 1274 
Q 346 966 400 713 
Q 454 461 588 285 
Q 723 109 956 13 
Q 1190 -83 1555 -83 
Q 1843 -83 2118 45 
Q 2394 173 2566 461 
L 2586 461 
L 2586 0 
L 3450 0 
z
" transform="scale(0.015625)"/>
      <path id="HelveticaNeue-Bold-4f" d="M 346 4570 
L 346 0 
L 1254 0 
L 1254 1734 
Q 1254 2240 1420 2461 
Q 1587 2682 1958 2682 
Q 2285 2682 2413 2480 
Q 2541 2278 2541 1869 
L 2541 0 
L 3450 0 
L 3450 2035 
Q 3450 2342 3395 2595 
Q 3341 2848 3206 3024 
Q 3072 3200 2838 3299 
Q 2605 3398 2240 3398 
Q 1984 3398 1715 3267 
Q 1446 3136 1274 2848 
L 1254 2848 
L 1254 4570 
L 346 4570 
z
" transform="scale(0.015625)"/>
      <path id="HelveticaNeue-Bold-20" d="M 1728 2157 
Q 1555 2157 1424 2230 
Q 1293 2304 1209 2422 
Q 1126 2541 1084 2691 
Q 1043 2842 1043 3002 
Q 1043 3155 1088 3302 
Q 1133 3450 1222 3565 
Q 1312 3680 1440 3750 
Q 1568 3821 1728 3821 
Q 1901 3821 2035 3750 
Q 2170 3680 2262 3561 
Q 2355 3443 2403 3292 
Q 2451 3142 2451 2989 
Q 2451 2822 2406 2672 
Q 2362 2522 2272 2406 
Q 2182 2291 2048 2224 
Q 1914 2157 1728 2157 
z
M 1075 1152 
L 211 1152 
Q 250 858 371 627 
Q 493 397 685 237 
Q 877 77 1126 -3 
Q 1376 -83 1664 -83 
Q 2144 -83 2477 125 
Q 2810 333 3021 669 
Q 3232 1005 3328 1421 
Q 3424 1837 3424 2253 
Q 3424 2675 3347 3091 
Q 3270 3507 3072 3836 
Q 2874 4166 2544 4368 
Q 2214 4570 1702 4570 
Q 1350 4570 1062 4442 
Q 774 4314 566 4093 
Q 358 3872 246 3574 
Q 134 3277 134 2931 
Q 134 2662 217 2400 
Q 301 2138 480 1933 
Q 672 1722 947 1597 
Q 1222 1472 1510 1472 
Q 1837 1472 2086 1587 
Q 2336 1702 2522 1971 
L 2534 1958 
Q 2522 1773 2480 1536 
Q 2438 1299 2342 1091 
Q 2246 883 2086 739 
Q 1926 595 1677 595 
Q 1440 595 1280 761 
Q 1120 928 1075 1152 
z
" transform="scale(0.015625)"/>
     </defs>
     <use xlink:href="#HelveticaNeue-Bold-3"/>
     <use xlink:href="#HelveticaNeue-Bold-2e" transform="translate(27.796875 0)"/>
     <use xlink:href="#HelveticaNeue-Bold-4c" transform="translate(103.703125 0)"/>
     <use xlink:href="#HelveticaNeue-Bold-55" transform="translate(161.109375 0)"/>
     <use xlink:href="#HelveticaNeue-Bold-5c" transform="translate(220.40625 0)"/>
     <use xlink:href="#HelveticaNeue-Bold-50" transform="translate(279.703125 0)"/>
     <use xlink:href="#HelveticaNeue-Bold-55" transform="translate(305.5 0)"/>
     <use xlink:href="#HelveticaNeue-Bold-4c" transform="translate(364.796875 0)"/>
     <use xlink:href="#HelveticaNeue-Bold-3" transform="translate(422.203125 0)"/>
     <use xlink:href="#HelveticaNeue-Bold-53" transform="translate(450 0)"/>
     <use xlink:href="#HelveticaNeue-Bold-48" transform="translate(475.796875 0)"/>
     <use xlink:href="#HelveticaNeue-Bold-5c" transform="translate(533.203125 0)"/>
     <use xlink:href="#HelveticaNeue-Bold-55" transform="translate(592.5 0)"/>
     <use xlink:href="#HelveticaNeue-Bold-4a" transform="translate(651.796875 0)"/>
     <use xlink:href="#HelveticaNeue-Bold-4f" transform="translate(709.203125 0)"/>
     <use xlink:href="#HelveticaNeue-Bold-4c" transform="translate(768.5 0)"/>
     <use xlink:href="#HelveticaNeue-Bold-5a" transform="translate(825.90625 0)"/>
     <use xlink:href="#HelveticaNeue-Bold-3" transform="translate(879.609375 0)"/>
     <use xlink:href="#HelveticaNeue-Bold-f" transform="translate(907.40625 0)"/>
     <use xlink:href="#HelveticaNeue-Bold-55" transform="translate(937 0)"/>
     <use xlink:href="#HelveticaNeue-Bold-24" transform="translate(996.296875 0)"/>
     <use xlink:href="#HelveticaNeue-Bold-19" transform="translate(1056.296875 0)"/>
     <use xlink:href="#HelveticaNeue-Bold-20" transform="translate(1111.890625 0)"/>
     <use xlink:href="#HelveticaNeue-Bold-10" transform="translate(1167.484375 0)"/>
    </g>
   </g>
   <g id="text_15">
    <!--  median launch path -->
    <g style="fill: #4e79a7" transform="translate(238.080716 179.512042) scale(0.069 -0.069)">
     <defs>
      <path id="HelveticaNeue-Bold-57" d="M 2016 595 
Q 1798 595 1644 684 
Q 1491 774 1398 918 
Q 1306 1062 1264 1254 
Q 1222 1446 1222 1645 
Q 1222 1850 1260 2042 
Q 1299 2234 1392 2381 
Q 1485 2528 1635 2621 
Q 1786 2714 2010 2714 
Q 2227 2714 2377 2621 
Q 2528 2528 2624 2377 
Q 2720 2227 2761 2035 
Q 2803 1843 2803 1645 
Q 2803 1446 2764 1254 
Q 2726 1062 2633 918 
Q 2541 774 2390 684 
Q 2240 595 2016 595 
z
M 346 3309 
L 346 -1158 
L 1254 -1158 
L 1254 410 
L 1267 410 
Q 1434 166 1693 41 
Q 1952 -83 2259 -83 
Q 2624 -83 2896 57 
Q 3168 198 3350 435 
Q 3533 672 3622 979 
Q 3712 1286 3712 1619 
Q 3712 1971 3622 2294 
Q 3533 2618 3347 2861 
Q 3162 3104 2880 3251 
Q 2598 3398 2208 3398 
Q 1901 3398 1645 3276 
Q 1389 3155 1222 2886 
L 1210 2886 
L 1210 3309 
L 346 3309 
z
" transform="scale(0.015625)"/>
     </defs>
     <use xlink:href="#HelveticaNeue-Bold-3"/>
     <use xlink:href="#HelveticaNeue-Bold-54" transform="translate(27.796875 0)"/>
     <use xlink:href="#HelveticaNeue-Bold-4c" transform="translate(118.390625 0)"/>
     <use xlink:href="#HelveticaNeue-Bold-4b" transform="translate(175.796875 0)"/>
     <use xlink:href="#HelveticaNeue-Bold-50" transform="translate(236.890625 0)"/>
     <use xlink:href="#HelveticaNeue-Bold-48" transform="translate(262.6875 0)"/>
     <use xlink:href="#HelveticaNeue-Bold-55" transform="translate(320.09375 0)"/>
     <use xlink:href="#HelveticaNeue-Bold-3" transform="translate(379.390625 0)"/>
     <use xlink:href="#HelveticaNeue-Bold-53" transform="translate(407.1875 0)"/>
     <use xlink:href="#HelveticaNeue-Bold-48" transform="translate(432.984375 0)"/>
     <use xlink:href="#HelveticaNeue-Bold-5c" transform="translate(490.390625 0)"/>
     <use xlink:href="#HelveticaNeue-Bold-55" transform="translate(549.6875 0)"/>
     <use xlink:href="#HelveticaNeue-Bold-4a" transform="translate(608.984375 0)"/>
     <use xlink:href="#HelveticaNeue-Bold-4f" transform="translate(666.390625 0)"/>
     <use xlink:href="#HelveticaNeue-Bold-3" transform="translate(725.6875 0)"/>
     <use xlink:href="#HelveticaNeue-Bold-57" transform="translate(753.484375 0)"/>
     <use xlink:href="#HelveticaNeue-Bold-48" transform="translate(814.578125 0)"/>
     <use xlink:href="#HelveticaNeue-Bold-5b" transform="translate(871.984375 0)"/>
     <use xlink:href="#HelveticaNeue-Bold-4f" transform="translate(907.1875 0)"/>
    </g>
   </g>
   <g id="line2d_11">
    <path d="M 57.991164 267.394834 
L 66.695642 251.851976 
L 75.400119 235.6809 
L 84.104597 222.39815 
L 92.809075 216.813659 
L 101.513552 215.827726 
L 110.21803 204.97655 
L 118.922507 210.07916 
L 127.626985 209.006016 
L 136.331463 206.197511 
L 145.03594 198.499251 
L 153.740418 198.650023 
L 162.444896 186.008794 
L 171.149373 185.778201 
L 179.853851 168.735011 
L 188.558328 158.319892 
L 197.262806 165.825991 
L 205.967284 167.901328 
L 214.671761 162.056681 
L 223.376239 161.970948 
L 232.080716 165.896942 
L 240.785194 166.848878 
L 249.489672 163.815692 
L 258.194149 157.22014 
L 266.898627 153.501088 
L 275.603104 141.652154 
L 284.307582 138.077962 
L 293.01206 148.266922 
L 301.716537 152.529937 
L 310.421015 154.101222 
L 319.125493 149.799775 
L 327.82997 146.225582 
L 336.534448 130.840888 
L 345.238925 143.27813 
L 353.943403 112.412661 
L 362.647881 115.62766 
L 371.352358 103.412141 
L 380.056836 107.704719 
L 388.761313 119.482702 
L 397.465791 122.703614 
L 406.170269 109.695802 
" clip-path="url(#pc47c7f1a7d)" style="fill: none; stroke: #4e79a7; stroke-width: 1.8; stroke-linecap: round"/>
   </g>
   <g id="PathCollection_1">
    <defs>
     <path id="mc71c860750" d="M 0 2.54951 
C 0.676138 2.54951 1.324674 2.280877 1.802776 1.802776 
C 2.280877 1.324674 2.54951 0.676138 2.54951 0 
C 2.54951 -0.676138 2.280877 -1.324674 1.802776 -1.802776 
C 1.324674 -2.280877 0.676138 -2.54951 0 -2.54951 
C -0.676138 -2.54951 -1.324674 -2.280877 -1.802776 -1.802776 
C -2.280877 -1.324674 -2.54951 -0.676138 -2.54951 0 
C -2.54951 0.676138 -2.280877 1.324674 -1.802776 1.802776 
C -1.324674 2.280877 -0.676138 2.54951 0 2.54951 
z
" style="stroke: #ffffff; stroke-opacity: 0.75; stroke-width: 0.5"/>
    </defs>
    <g clip-path="url(#pc47c7f1a7d)">
     <use xlink:href="#mc71c860750" x="59.515611" y="143.372733" style="fill: #4e79a7; fill-opacity: 0.75; stroke: #ffffff; stroke-opacity: 0.75; stroke-width: 0.5"/>
     <use xlink:href="#mc71c860750" x="62.831718" y="132.626506" style="fill: #4e79a7; fill-opacity: 0.75; stroke: #ffffff; stroke-opacity: 0.75; stroke-width: 0.5"/>
     <use xlink:href="#mc71c860750" x="61.350744" y="103.489006" style="fill: #4e79a7; fill-opacity: 0.75; stroke: #ffffff; stroke-opacity: 0.75; stroke-width: 0.5"/>
     <use xlink:href="#mc71c860750" x="54.642465" y="155.632596" style="fill: #4e79a7; fill-opacity: 0.75; stroke: #ffffff; stroke-opacity: 0.75; stroke-width: 0.5"/>
     <use xlink:href="#mc71c860750" x="55.555937" y="210.102811" style="fill: #4e79a7; fill-opacity: 0.75; stroke: #ffffff; stroke-opacity: 0.75; stroke-width: 0.5"/>
     <use xlink:href="#mc71c860750" x="62.543387" y="267.742202" style="fill: #4e79a7; fill-opacity: 0.75; stroke: #ffffff; stroke-opacity: 0.75; stroke-width: 0.5"/>
     <use xlink:href="#mc71c860750" x="51.962194" y="46.594608" style="fill: #4e79a7; fill-opacity: 0.75; stroke: #ffffff; stroke-opacity: 0.75; stroke-width: 0.5"/>
     <use xlink:href="#mc71c860750" x="61.90574" y="267.958013" style="fill: #4e79a7; fill-opacity: 0.75; stroke: #ffffff; stroke-opacity: 0.75; stroke-width: 0.5"/>
     <use xlink:href="#mc71c860750" x="61.611332" y="211.749482" style="fill: #4e79a7; fill-opacity: 0.75; stroke: #ffffff; stroke-opacity: 0.75; stroke-width: 0.5"/>
     <use xlink:href="#mc71c860750" x="57.600411" y="196.769803" style="fill: #4e79a7; fill-opacity: 0.75; stroke: #ffffff; stroke-opacity: 0.75; stroke-width: 0.5"/>
     <use xlink:href="#mc71c860750" x="55.590864" y="202.744528" style="fill: #4e79a7; fill-opacity: 0.75; stroke: #ffffff; stroke-opacity: 0.75; stroke-width: 0.5"/>
     <use xlink:href="#mc71c860750" x="55.290999" y="180.666722" style="fill: #4e79a7; fill-opacity: 0.75; stroke: #ffffff; stroke-opacity: 0.75; stroke-width: 0.5"/>
     <use xlink:href="#mc71c860750" x="55.003939" y="268.871516" style="fill: #4e79a7; fill-opacity: 0.75; stroke: #ffffff; stroke-opacity: 0.75; stroke-width: 0.5"/>
     <use xlink:href="#mc71c860750" x="57.321849" y="186.747875" style="fill: #4e79a7; fill-opacity: 0.75; stroke: #ffffff; stroke-opacity: 0.75; stroke-width: 0.5"/>
     <use xlink:href="#mc71c860750" x="58.04659" y="198.496294" style="fill: #4e79a7; fill-opacity: 0.75; stroke: #ffffff; stroke-opacity: 0.75; stroke-width: 0.5"/>
     <use xlink:href="#mc71c860750" x="58.643097" y="190.629524" style="fill: #4e79a7; fill-opacity: 0.75; stroke: #ffffff; stroke-opacity: 0.75; stroke-width: 0.5"/>
     <use xlink:href="#mc71c860750" x="64.029464" y="269.267663" style="fill: #4e79a7; fill-opacity: 0.75; stroke: #ffffff; stroke-opacity: 0.75; stroke-width: 0.5"/>
     <use xlink:href="#mc71c860750" x="61.557621" y="268.377811" style="fill: #4e79a7; fill-opacity: 0.75; stroke: #ffffff; stroke-opacity: 0.75; stroke-width: 0.5"/>
     <use xlink:href="#mc71c860750" x="59.480073" y="183.362887" style="fill: #4e79a7; fill-opacity: 0.75; stroke: #ffffff; stroke-opacity: 0.75; stroke-width: 0.5"/>
     <use xlink:href="#mc71c860750" x="63.949764" y="46.325582" style="fill: #4e79a7; fill-opacity: 0.75; stroke: #ffffff; stroke-opacity: 0.75; stroke-width: 0.5"/>
     <use xlink:href="#mc71c860750" x="54.521839" y="213.878033" style="fill: #4e79a7; fill-opacity: 0.75; stroke: #ffffff; stroke-opacity: 0.75; stroke-width: 0.5"/>
     <use xlink:href="#mc71c860750" x="53.850417" y="269.21445" style="fill: #4e79a7; fill-opacity: 0.75; stroke: #ffffff; stroke-opacity: 0.75; stroke-width: 0.5"/>
     <use xlink:href="#mc71c860750" x="59.362602" y="188.391589" style="fill: #4e79a7; fill-opacity: 0.75; stroke: #ffffff; stroke-opacity: 0.75; stroke-width: 0.5"/>
     <use xlink:href="#mc71c860750" x="52.433519" y="193.272475" style="fill: #4e79a7; fill-opacity: 0.75; stroke: #ffffff; stroke-opacity: 0.75; stroke-width: 0.5"/>
     <use xlink:href="#mc71c860750" x="52.332839" y="57.621685" style="fill: #4e79a7; fill-opacity: 0.75; stroke: #ffffff; stroke-opacity: 0.75; stroke-width: 0.5"/>
     <use xlink:href="#mc71c860750" x="58.172603" y="88.955732" style="fill: #4e79a7; fill-opacity: 0.75; stroke: #ffffff; stroke-opacity: 0.75; stroke-width: 0.5"/>
     <use xlink:href="#mc71c860750" x="57.579342" y="270.130909" style="fill: #4e79a7; fill-opacity: 0.75; stroke: #ffffff; stroke-opacity: 0.75; stroke-width: 0.5"/>
     <use xlink:href="#mc71c860750" x="63.074883" y="166.248745" style="fill: #4e79a7; fill-opacity: 0.75; stroke: #ffffff; stroke-opacity: 0.75; stroke-width: 0.5"/>
     <use xlink:href="#mc71c860750" x="59.56595" y="50.100804" style="fill: #4e79a7; fill-opacity: 0.75; stroke: #ffffff; stroke-opacity: 0.75; stroke-width: 0.5"/>
    </g>
   </g>
   <g id="PathCollection_2">
    <defs>
     <path id="m40de1c9891" d="M -2.738613 2.738613 
L 2.738613 2.738613 
L 2.738613 -2.738613 
L -2.738613 -2.738613 
z
" style="stroke: #ffffff; stroke-opacity: 0.85; stroke-width: 0.5"/>
    </defs>
    <g clip-path="url(#pc47c7f1a7d)">
     <use xlink:href="#m40de1c9891" x="58.163206" y="31.827784" style="fill: #f28e2b; fill-opacity: 0.85; stroke: #ffffff; stroke-opacity: 0.85; stroke-width: 0.5"/>
     <use xlink:href="#m40de1c9891" x="57.953063" y="33.728699" style="fill: #f28e2b; fill-opacity: 0.85; stroke: #ffffff; stroke-opacity: 0.85; stroke-width: 0.5"/>
     <use xlink:href="#m40de1c9891" x="54.914313" y="65.87869" style="fill: #f28e2b; fill-opacity: 0.85; stroke: #ffffff; stroke-opacity: 0.85; stroke-width: 0.5"/>
     <use xlink:href="#m40de1c9891" x="52.041755" y="68.163926" style="fill: #f28e2b; fill-opacity: 0.85; stroke: #ffffff; stroke-opacity: 0.85; stroke-width: 0.5"/>
     <use xlink:href="#m40de1c9891" x="54.242694" y="62.538047" style="fill: #f28e2b; fill-opacity: 0.85; stroke: #ffffff; stroke-opacity: 0.85; stroke-width: 0.5"/>
     <use xlink:href="#m40de1c9891" x="60.331319" y="53.692734" style="fill: #f28e2b; fill-opacity: 0.85; stroke: #ffffff; stroke-opacity: 0.85; stroke-width: 0.5"/>
     <use xlink:href="#m40de1c9891" x="54.342677" y="27.949091" style="fill: #f28e2b; fill-opacity: 0.85; stroke: #ffffff; stroke-opacity: 0.85; stroke-width: 0.5"/>
     <use xlink:href="#m40de1c9891" x="56.401299" y="45.160792" style="fill: #f28e2b; fill-opacity: 0.85; stroke: #ffffff; stroke-opacity: 0.85; stroke-width: 0.5"/>
     <use xlink:href="#m40de1c9891" x="51.943536" y="32.673292" style="fill: #f28e2b; fill-opacity: 0.85; stroke: #ffffff; stroke-opacity: 0.85; stroke-width: 0.5"/>
     <use xlink:href="#m40de1c9891" x="62.013214" y="41.965009" style="fill: #f28e2b; fill-opacity: 0.85; stroke: #ffffff; stroke-opacity: 0.85; stroke-width: 0.5"/>
     <use xlink:href="#m40de1c9891" x="53.780334" y="43.833404" style="fill: #f28e2b; fill-opacity: 0.85; stroke: #ffffff; stroke-opacity: 0.85; stroke-width: 0.5"/>
     <use xlink:href="#m40de1c9891" x="55.159067" y="42.112825" style="fill: #f28e2b; fill-opacity: 0.85; stroke: #ffffff; stroke-opacity: 0.85; stroke-width: 0.5"/>
     <use xlink:href="#m40de1c9891" x="62.625994" y="66.540906" style="fill: #f28e2b; fill-opacity: 0.85; stroke: #ffffff; stroke-opacity: 0.85; stroke-width: 0.5"/>
     <use xlink:href="#m40de1c9891" x="58.110478" y="31.963775" style="fill: #f28e2b; fill-opacity: 0.85; stroke: #ffffff; stroke-opacity: 0.85; stroke-width: 0.5"/>
     <use xlink:href="#m40de1c9891" x="62.22163" y="68.799535" style="fill: #f28e2b; fill-opacity: 0.85; stroke: #ffffff; stroke-opacity: 0.85; stroke-width: 0.5"/>
     <use xlink:href="#m40de1c9891" x="59.693795" y="39.292495" style="fill: #f28e2b; fill-opacity: 0.85; stroke: #ffffff; stroke-opacity: 0.85; stroke-width: 0.5"/>
     <use xlink:href="#m40de1c9891" x="60.93745" y="34.520993" style="fill: #f28e2b; fill-opacity: 0.85; stroke: #ffffff; stroke-opacity: 0.85; stroke-width: 0.5"/>
     <use xlink:href="#m40de1c9891" x="53.01302" y="48.720202" style="fill: #f28e2b; fill-opacity: 0.85; stroke: #ffffff; stroke-opacity: 0.85; stroke-width: 0.5"/>
     <use xlink:href="#m40de1c9891" x="58.492554" y="41.202278" style="fill: #f28e2b; fill-opacity: 0.85; stroke: #ffffff; stroke-opacity: 0.85; stroke-width: 0.5"/>
     <use xlink:href="#m40de1c9891" x="58.085879" y="52.711236" style="fill: #f28e2b; fill-opacity: 0.85; stroke: #ffffff; stroke-opacity: 0.85; stroke-width: 0.5"/>
    </g>
   </g>
  </g>
 </g>
 <defs>
  <clipPath id="pc47c7f1a7d">
   <rect x="44.064" y="15.84" width="466.56" height="266.4"/>
  </clipPath>
 </defs>
</svg>
